<svg width="460" height="107" viewBox="0 0 460 107" fill="none" xmlns="http://www.w3.org/2000/svg">
<g clip-path="url(#clip0_127_187)">
<rect width="460" height="107" rx="5.89728" fill="white"/>
<rect x="14.7554" y="0.452866" width="15.3496" height="15.3496" fill="#CDCDCD"/>
<rect x="-0.59375" y="15.8024" width="15.3496" height="15.3496" fill="#CDCDCD"/>
<rect x="45.4541" y="0.452866" width="15.3496" height="15.3496" fill="#CDCDCD"/>
<rect x="30.105" y="15.8024" width="15.3496" height="15.3496" fill="#CDCDCD"/>
<rect x="76.1543" y="0.452866" width="15.3496" height="15.3496" fill="#CDCDCD"/>
<rect x="60.8047" y="15.8024" width="15.3496" height="15.3496" fill="#CDCDCD"/>
<rect x="106.854" y="0.452866" width="15.3496" height="15.3496" fill="#CDCDCD"/>
<rect x="91.5034" y="15.8024" width="15.3496" height="15.3496" fill="#CDCDCD"/>
<rect x="14.7554" y="31.1521" width="15.3496" height="15.3496" fill="#CDCDCD"/>
<rect x="-0.59375" y="46.5017" width="15.3496" height="15.3496" fill="#CDCDCD"/>
<rect x="45.4541" y="31.1521" width="15.3496" height="15.3496" fill="#CDCDCD"/>
<rect x="30.105" y="46.5017" width="15.3496" height="15.3496" fill="#CDCDCD"/>
<rect x="76.1543" y="31.1521" width="15.3496" height="15.3496" fill="#CDCDCD"/>
<rect x="60.8047" y="46.5017" width="15.3496" height="15.3496" fill="#CDCDCD"/>
<rect x="106.854" y="31.1521" width="15.3496" height="15.3496" fill="#CDCDCD"/>
<rect x="91.5034" y="46.5017" width="15.3496" height="15.3496" fill="#CDCDCD"/>
<rect x="14.7554" y="61.8513" width="15.3496" height="15.3496" fill="#CDCDCD"/>
<rect x="-0.59375" y="77.2009" width="15.3496" height="15.3496" fill="#CDCDCD"/>
<rect x="45.4541" y="61.8513" width="15.3496" height="15.3496" fill="#CDCDCD"/>
<rect x="30.105" y="77.2009" width="15.3496" height="15.3496" fill="#CDCDCD"/>
<rect x="76.1543" y="61.8513" width="15.3496" height="15.3496" fill="#CDCDCD"/>
<rect x="60.8047" y="77.2009" width="15.3496" height="15.3496" fill="#CDCDCD"/>
<rect x="106.854" y="61.8513" width="15.3496" height="15.3496" fill="#CDCDCD"/>
<rect x="91.5034" y="77.2009" width="15.3496" height="15.3496" fill="#CDCDCD"/>
<rect x="14.7554" y="92.5505" width="15.3496" height="15.3496" fill="#CDCDCD"/>
<rect x="45.4541" y="92.5505" width="15.3496" height="15.3496" fill="#CDCDCD"/>
<rect x="76.1543" y="92.5505" width="15.3496" height="15.3496" fill="#CDCDCD"/>
<rect x="106.854" y="92.5505" width="15.3496" height="15.3496" fill="#CDCDCD"/>
<rect x="137.534" y="0.452881" width="15.3496" height="15.3496" fill="#CDCDCD"/>
<rect x="122.185" y="15.8024" width="15.3496" height="15.3496" fill="#CDCDCD"/>
<rect x="168.233" y="0.452866" width="15.3496" height="15.3496" fill="#CDCDCD"/>
<rect x="152.884" y="15.8024" width="15.3496" height="15.3496" fill="#CDCDCD"/>
<rect x="198.933" y="0.452866" width="15.3496" height="15.3496" fill="#CDCDCD"/>
<rect x="183.584" y="15.8024" width="15.3496" height="15.3496" fill="#CDCDCD"/>
<rect x="214.282" y="15.8024" width="15.3496" height="15.3496" fill="#CDCDCD"/>
<rect x="137.534" y="31.1521" width="15.3496" height="15.3496" fill="#CDCDCD"/>
<rect x="122.185" y="46.5017" width="15.3496" height="15.3496" fill="#CDCDCD"/>
<rect x="168.233" y="31.1521" width="15.3496" height="15.3496" fill="#CDCDCD"/>
<rect x="152.884" y="46.5017" width="15.3496" height="15.3496" fill="#CDCDCD"/>
<rect x="198.933" y="31.1521" width="15.3496" height="15.3496" fill="#CDCDCD"/>
<rect x="183.584" y="46.5017" width="15.3496" height="15.3496" fill="#CDCDCD"/>
<rect x="214.282" y="46.5017" width="15.3496" height="15.3496" fill="#CDCDCD"/>
<rect x="137.534" y="61.8513" width="15.3496" height="15.3496" fill="#CDCDCD"/>
<rect x="122.185" y="77.2009" width="15.3496" height="15.3496" fill="#CDCDCD"/>
<rect x="168.233" y="61.8513" width="15.3496" height="15.3496" fill="#CDCDCD"/>
<rect x="152.884" y="77.2009" width="15.3496" height="15.3496" fill="#CDCDCD"/>
<rect x="198.933" y="61.8513" width="15.3496" height="15.3496" fill="#CDCDCD"/>
<rect x="183.584" y="77.2009" width="15.3496" height="15.3496" fill="#CDCDCD"/>
<rect x="214.282" y="77.2009" width="15.3496" height="15.3496" fill="#CDCDCD"/>
<rect x="137.534" y="92.5505" width="15.3496" height="15.3496" fill="#CDCDCD"/>
<rect x="168.233" y="92.5505" width="15.3496" height="15.3496" fill="#CDCDCD"/>
<rect x="198.933" y="92.5505" width="15.3496" height="15.3496" fill="#CDCDCD"/>
<rect x="229.65" y="0.452881" width="15.3496" height="15.3496" fill="#E4E4E4"/>
<rect x="214.3" y="15.8024" width="15.3496" height="15.3496" fill="#E4E4E4"/>
<rect x="260.349" y="0.452866" width="15.3496" height="15.3496" fill="#E4E4E4"/>
<rect x="245" y="15.8024" width="15.3496" height="15.3496" fill="#E4E4E4"/>
<rect x="291.048" y="0.452881" width="15.3496" height="15.3496" fill="#E4E4E4"/>
<rect x="275.699" y="15.8024" width="15.3496" height="15.3496" fill="#E4E4E4"/>
<rect x="321.748" y="0.452866" width="15.3496" height="15.3496" fill="#E4E4E4"/>
<rect x="306.398" y="15.8024" width="15.3496" height="15.3496" fill="#E4E4E4"/>
<rect x="229.65" y="31.1521" width="15.3496" height="15.3496" fill="#E4E4E4"/>
<rect x="214.3" y="46.5017" width="15.3496" height="15.3496" fill="#E4E4E4"/>
<rect x="260.349" y="31.1521" width="15.3496" height="15.3496" fill="#E4E4E4"/>
<rect x="245" y="46.5017" width="15.3496" height="15.3496" fill="#E4E4E4"/>
<rect x="291.048" y="31.1521" width="15.3496" height="15.3496" fill="#E4E4E4"/>
<rect x="275.699" y="46.5017" width="15.3496" height="15.3496" fill="#E4E4E4"/>
<rect x="321.748" y="31.1521" width="15.3496" height="15.3496" fill="#E4E4E4"/>
<rect x="306.398" y="46.5017" width="15.3496" height="15.3496" fill="#E4E4E4"/>
<rect x="229.65" y="61.8513" width="15.3496" height="15.3496" fill="#E4E4E4"/>
<rect x="214.3" y="77.2009" width="15.3496" height="15.3496" fill="#E4E4E4"/>
<rect x="260.349" y="61.8513" width="15.3496" height="15.3496" fill="#E4E4E4"/>
<rect x="245" y="77.2009" width="15.3496" height="15.3496" fill="#E4E4E4"/>
<rect x="291.048" y="61.8513" width="15.3496" height="15.3496" fill="#E4E4E4"/>
<rect x="275.699" y="77.2009" width="15.3496" height="15.3496" fill="#E4E4E4"/>
<rect x="321.748" y="61.8513" width="15.3496" height="15.3496" fill="#E4E4E4"/>
<rect x="306.398" y="77.2009" width="15.3496" height="15.3496" fill="#E4E4E4"/>
<rect x="229.65" y="92.5505" width="15.3496" height="15.3496" fill="#E4E4E4"/>
<rect x="260.349" y="92.5505" width="15.3496" height="15.3496" fill="#E4E4E4"/>
<rect x="291.048" y="92.5505" width="15.3496" height="15.3496" fill="#E4E4E4"/>
<rect x="321.748" y="92.5505" width="15.3496" height="15.3496" fill="#E4E4E4"/>
<rect x="352.429" y="0.452866" width="15.3496" height="15.3496" fill="#E4E4E4"/>
<rect x="337.08" y="15.8024" width="15.3496" height="15.3496" fill="#E4E4E4"/>
<rect x="383.128" y="0.452866" width="15.3496" height="15.3496" fill="#E4E4E4"/>
<rect x="367.779" y="15.8024" width="15.3496" height="15.3496" fill="#E4E4E4"/>
<rect x="413.828" y="0.452881" width="15.3496" height="15.3496" fill="#E4E4E4"/>
<rect x="398.478" y="15.8024" width="15.3496" height="15.3496" fill="#E4E4E4"/>
<rect x="444.527" y="0.452866" width="15.3496" height="15.3496" fill="#E4E4E4"/>
<rect x="429.178" y="15.8024" width="15.3496" height="15.3496" fill="#E4E4E4"/>
<rect x="352.429" y="31.1521" width="15.3496" height="15.3496" fill="#E4E4E4"/>
<rect x="337.08" y="46.5017" width="15.3496" height="15.3496" fill="#E4E4E4"/>
<rect x="383.128" y="31.1521" width="15.3496" height="15.3496" fill="#E4E4E4"/>
<rect x="367.779" y="46.5017" width="15.3496" height="15.3496" fill="#E4E4E4"/>
<rect x="413.828" y="31.1521" width="15.3496" height="15.3496" fill="#E4E4E4"/>
<rect x="398.478" y="46.5017" width="15.3496" height="15.3496" fill="#E4E4E4"/>
<rect x="444.527" y="31.1521" width="15.3496" height="15.3496" fill="#E4E4E4"/>
<rect x="429.178" y="46.5017" width="15.3496" height="15.3496" fill="#E4E4E4"/>
<rect x="352.429" y="61.8513" width="15.3496" height="15.3496" fill="#E4E4E4"/>
<rect x="337.08" y="77.2009" width="15.3496" height="15.3496" fill="#E4E4E4"/>
<rect x="383.128" y="61.8513" width="15.3496" height="15.3496" fill="#E4E4E4"/>
<rect x="367.779" y="77.2009" width="15.3496" height="15.3496" fill="#E4E4E4"/>
<rect x="413.828" y="61.8513" width="15.3496" height="15.3496" fill="#E4E4E4"/>
<rect x="398.478" y="77.2009" width="15.3496" height="15.3496" fill="#E4E4E4"/>
<rect x="444.527" y="61.8513" width="15.3496" height="15.3496" fill="#E4E4E4"/>
<rect x="429.178" y="77.2009" width="15.3496" height="15.3496" fill="#E4E4E4"/>
<rect x="352.429" y="92.5505" width="15.3496" height="15.3496" fill="#E4E4E4"/>
<rect x="383.128" y="92.5505" width="15.3496" height="15.3496" fill="#E4E4E4"/>
<rect x="413.828" y="92.5505" width="15.3496" height="15.3496" fill="#E4E4E4"/>
<rect x="444.527" y="92.5505" width="15.3496" height="15.3496" fill="#E4E4E4"/>
<rect x="30.2124" y="33.1542" width="156.791" height="42.6286" rx="21.3143" fill="#F8F8F8"/>
<path d="M130.247 60.5765C129.52 59.3645 129.187 57.8494 129.187 56.0313C129.187 54.2738 129.58 52.789 130.338 51.5769C131.156 50.274 132.399 49.274 134.035 48.6377C135.489 48.0619 137.247 47.7589 139.307 47.7589C141.338 47.7589 143.095 48.0619 144.519 48.6074C146.125 49.2437 147.368 50.2133 148.186 51.5163C148.974 52.789 149.367 54.3647 149.367 56.2434H138.398V57.7888C141.701 57.7888 145.004 57.7888 148.307 57.7888L147.852 64.0006H138.641C136.974 64.0006 135.52 63.8188 134.308 63.4855C132.429 62.9098 131.096 61.9401 130.247 60.5765ZM140.641 55.3646V54.0011C140.277 54.0011 139.883 54.0011 139.519 54.0011H138.398C138.398 54.3647 138.398 54.698 138.398 55.0616V55.3646H140.641Z" fill="#B1B1B1"/>
<path d="M107.206 64.0006V42.7894H116.296V53.8192H116.599L118.417 48.0619C119.266 48.0619 120.114 48.0619 120.963 48.0619C123.872 48.0619 125.811 49.0315 126.78 51.3345C127.296 52.5162 127.538 54.0616 127.538 56.0312C127.538 57.8796 127.326 59.3644 126.871 60.5462C125.902 63.0006 123.932 64.0006 120.932 64.0006H117.357C117.084 62.0916 116.842 60.1522 116.569 58.2432H116.266L114.781 64.0006H107.206ZM116.296 57.3645H117.932C117.932 56.91 117.932 56.4857 117.932 56.0312V54.6979C117.387 54.6979 116.842 54.6979 116.296 54.6979V57.3645Z" fill="#B1B1B1"/>
<path d="M85.3965 58.5766V48.0619H94.487V57.5161H95.2142C95.487 57.5161 95.7294 57.5161 96.0021 57.5161V48.0619H105.093V64.0006H97.5172L96.0627 58.3948H95.7597L94.9415 64.0006C93.487 64.0006 92.0629 64.0006 90.6084 64.0006C86.851 64.0006 85.3965 62.1522 85.3965 58.5766Z" fill="#B1B1B1"/>
<path d="M74.1816 64.0006V42.7894H83.2722V64.0006H74.1816Z" fill="#B1B1B1"/>
<path d="M54.3421 60.0312C53.0695 58.3646 52.4028 56.2131 52.4028 53.3951C52.4028 50.577 53.0089 48.3347 54.2815 46.6681C55.2512 45.3651 56.5845 44.4258 58.3117 43.7894C60.0995 43.1228 62.3115 42.7895 64.978 42.7895H71.5232L71.9777 51.3346L65.6447 51.1528C64.4932 51.1225 63.3114 51.0619 62.16 51.0316V53.3951C62.16 54.1829 62.16 54.9708 62.16 55.7586C63.3114 55.7283 64.4932 55.6677 65.6447 55.6374C67.7961 55.5465 69.9475 55.4859 72.0989 55.395L71.6444 64.0007H64.978C62.3115 64.0007 60.1298 63.6068 58.342 62.9401C56.6148 62.3038 55.3118 61.3341 54.3421 60.0312Z" fill="#B1B1B1"/>
<path d="M150.136 64.5645C150.136 64.37 150.202 64.2067 150.334 64.0747C150.466 63.9392 150.645 63.8715 150.871 63.8715C151.1 63.8715 151.279 63.9392 151.408 64.0747C151.54 64.2067 151.606 64.37 151.606 64.5645C151.606 64.759 151.54 64.9223 151.408 65.0543C151.279 65.1863 151.1 65.2524 150.871 65.2524C150.645 65.2524 150.466 65.1863 150.334 65.0543C150.202 64.9223 150.136 64.759 150.136 64.5645ZM154.889 64.1945L156.27 59.5516H157.572L155.613 65.1898H154.8L154.889 64.1945ZM153.831 59.5516L155.238 64.2154L155.306 65.1898H154.493L152.523 59.5516H153.831ZM160.579 64.2935C160.784 64.2935 160.968 64.2536 161.131 64.1737C161.298 64.0903 161.432 63.9757 161.533 63.8298C161.637 63.6839 161.694 63.5154 161.705 63.3243H162.888C162.881 63.6891 162.773 64.0208 162.564 64.3196C162.356 64.6184 162.08 64.8563 161.736 65.0335C161.392 65.2072 161.012 65.294 160.595 65.294C160.164 65.294 159.789 65.2211 159.469 65.0752C159.15 64.9258 158.884 64.7208 158.672 64.4603C158.46 64.1997 158.3 63.8992 158.193 63.5588C158.088 63.2184 158.036 62.8536 158.036 62.4645V62.2821C158.036 61.893 158.088 61.5283 158.193 61.1878C158.3 60.8439 158.46 60.5417 158.672 60.2811C158.884 60.0206 159.15 59.8174 159.469 59.6714C159.789 59.5221 160.162 59.4474 160.59 59.4474C161.041 59.4474 161.437 59.5377 161.778 59.7183C162.118 59.8955 162.386 60.1439 162.58 60.4635C162.778 60.7796 162.881 61.1479 162.888 61.5682H161.705C161.694 61.3598 161.642 61.1722 161.548 61.0054C161.458 60.8352 161.329 60.6997 161.163 60.599C160.999 60.4982 160.803 60.4479 160.574 60.4479C160.32 60.4479 160.11 60.5 159.943 60.6042C159.777 60.7049 159.646 60.8439 159.553 61.0211C159.459 61.1948 159.391 61.3911 159.349 61.6099C159.311 61.8253 159.292 62.0494 159.292 62.2821V62.4645C159.292 62.6973 159.311 62.9231 159.349 63.1419C159.388 63.3608 159.454 63.5571 159.547 63.7308C159.645 63.901 159.777 64.0382 159.943 64.1424C160.11 64.2432 160.322 64.2935 160.579 64.2935Z" fill="#B1B1B1"/>
</g>
<defs>
<clipPath id="clip0_127_187">
<rect width="460" height="107" rx="5.89728" fill="white"/>
</clipPath>
</defs>
</svg>
