<svg width="19" height="21" viewBox="0 0 19 21" fill="none" xmlns="http://www.w3.org/2000/svg">
<path d="M1.85905 16.6663C0.69304 15.1394 0.0822754 13.1683 0.0822754 10.5864C0.0822754 8.00451 0.637517 5.95012 1.80352 4.4232C2.69191 3.22944 3.91344 2.36881 5.49588 1.78581C7.13384 1.17504 9.16047 0.869659 11.6035 0.869659H17.6001L18.0166 8.69856L12.2143 8.53199C11.1593 8.50423 10.0766 8.4487 9.02166 8.42094V10.5864C9.02166 11.3082 9.02166 12.03 9.02166 12.7518C10.0766 12.7241 11.1593 12.6685 12.2143 12.6408C14.1854 12.5575 16.1565 12.502 18.1276 12.4187L17.7112 20.3031H11.6035C9.16047 20.3031 7.1616 19.9422 5.52364 19.3314C3.9412 18.7484 2.74743 17.86 1.85905 16.6663Z" fill="white"/>
</svg>
