<svg width="472" height="104" viewBox="0 0 472 104" fill="none" xmlns="http://www.w3.org/2000/svg">
<path d="M379.036 87.2165C375.501 81.3234 373.88 73.9571 373.88 65.1174C373.88 56.5724 375.795 49.3534 379.478 43.4603C383.456 37.1252 389.497 32.2634 397.452 29.1695C404.524 26.3703 413.069 24.897 423.087 24.897C432.958 24.897 441.503 26.3703 448.428 29.0222C456.236 32.1161 462.276 36.8306 466.254 43.1656C470.085 49.3534 472 57.0144 472 66.1487H418.668V73.6624C434.726 73.6624 450.785 73.6624 466.844 73.6624L464.634 103.865H419.846C411.743 103.865 404.671 102.981 398.778 101.36C389.644 98.5607 383.162 93.8463 379.036 87.2165ZM429.57 61.8762V55.2465C427.802 55.2465 425.887 55.2465 424.119 55.2465H418.668C418.668 57.0144 418.668 58.635 418.668 60.4029V61.8762H429.57Z" fill="black"/>
<path d="M267.009 103.865V0.735352H311.207V54.3625H312.68L321.52 26.3703C325.645 26.3703 329.77 26.3703 333.896 26.3703C348.039 26.3703 357.468 31.0848 362.182 42.2817C364.687 48.0275 365.866 55.5411 365.866 65.1174C365.866 74.1044 364.834 81.3234 362.624 87.0692C357.91 99.0027 348.334 103.865 333.748 103.865H316.364C315.038 94.5829 313.859 85.154 312.533 75.8723H311.06L303.841 103.865H267.009ZM311.207 71.5998H319.163C319.163 69.3899 319.163 67.3273 319.163 65.1174V58.635C316.511 58.635 313.859 58.635 311.207 58.635V71.5998Z" fill="black"/>
<path d="M160.973 77.493V26.3704H205.172V72.3366H208.708C210.033 72.3366 211.212 72.3366 212.538 72.3366V26.3704H256.736V103.865H219.904L212.833 76.6091H211.359L207.382 103.865C200.31 103.865 193.385 103.865 186.314 103.865C168.045 103.865 160.973 94.8777 160.973 77.493Z" fill="black"/>
<path d="M106.445 103.865V0.735352H150.643V103.865H106.445Z" fill="black"/>
<path d="M9.98588 84.5647C3.79813 76.4616 0.556923 66.0014 0.556923 52.2999C0.556923 38.5985 3.50347 27.6963 9.69122 19.5933C14.4057 13.2582 20.8881 8.69103 29.2858 5.59715C37.9781 2.35596 48.733 0.735352 61.6978 0.735352H93.5205L95.7304 42.2817L64.939 41.3977C59.3406 41.2504 53.5948 40.9557 47.9963 40.8084V52.2999C47.9963 56.1305 47.9963 59.961 47.9963 63.7915C53.5948 63.6442 59.3406 63.3495 64.939 63.2022C75.3992 62.7602 85.8595 62.4655 96.3197 62.0236L94.1098 103.865H61.6978C48.733 103.865 38.1254 101.949 29.4331 98.7081C21.0354 95.6142 14.7004 90.8997 9.98588 84.5647Z" fill="black"/>
</svg>
