<svg width="30" height="30" viewBox="0 0 30 30" fill="none" xmlns="http://www.w3.org/2000/svg">
<path d="M1.29635 9.36875C1.0301 8.3675 1.70135 7.355 2.71135 7.12625C2.94385 7.07375 8.4851 5.8375 15.0001 5.8375C21.5151 5.8375 27.0576 7.07375 27.2901 7.12625C28.3001 7.355 28.9326 8.35875 28.7038 9.36875C28.4751 10.3788 27.4688 11.0113 26.4613 10.7838C26.4088 10.7725 21.0938 9.5875 15.0001 9.5875C8.90635 9.5875 3.59135 10.7725 3.53885 10.7838C3.4001 10.815 1.75635 11.0988 1.29635 9.36875Z" fill="white"/>
<path d="M1.29635 16.035C1.0301 15.0338 1.70135 14.0213 2.71135 13.7925C2.94385 13.74 8.4851 12.5038 15.0001 12.5038C21.5151 12.5038 27.0576 13.74 27.2901 13.7925C28.3001 14.0213 28.9326 15.025 28.7038 16.035C28.4751 17.045 27.4688 17.6775 26.4613 17.45C26.4088 17.4388 21.0938 16.2538 15.0001 16.2538C8.90635 16.2538 3.59135 17.4388 3.53885 17.45C3.4001 17.4813 1.75635 17.765 1.29635 16.035Z" fill="white"/>
<path d="M1.29635 22.7025C1.0301 21.7013 1.70135 20.6887 2.71135 20.46C2.94385 20.4075 8.4851 19.1712 15.0001 19.1712C21.5151 19.1712 27.0576 20.4075 27.2901 20.46C28.3001 20.6887 28.9326 21.6925 28.7038 22.7025C28.4751 23.7125 27.4688 24.345 26.4613 24.1175C26.4088 24.1063 21.0938 22.9212 15.0001 22.9212C8.90635 22.9212 3.59135 24.1063 3.53885 24.1175C3.4001 24.1488 1.75635 24.4325 1.29635 22.7025Z" fill="white"/>
</svg>
